<svg width="123" height="118" viewBox="0 0 123 118" fill="none" xmlns="http://www.w3.org/2000/svg">
<path d="M16.129 59.3592C16.0884 54.2383 20.4309 49.9829 25.8135 49.9403C31.1961 49.8976 35.6054 54.0837 35.6459 59.2046C35.6865 64.3256 31.3441 68.581 25.9615 68.6236C20.5789 68.6663 16.1696 64.4802 16.129 59.3592Z" fill="#0C1E33" stroke="#0C1E33" stroke-width="0.821944"/>
<path d="M87.3159 58.7953C87.2753 53.6744 91.6178 49.419 97.0004 49.3764C102.383 49.3337 106.792 53.5198 106.833 58.6407C106.873 63.7617 102.531 68.0171 97.1484 68.0597C91.7658 68.1024 87.3565 63.9163 87.3159 58.7953Z" fill="#0C1E33" stroke="#0C1E33" stroke-width="0.821944"/>
<path d="M51.7224 59.0773C51.6819 53.9563 56.0243 49.7009 61.4069 49.6583C66.7895 49.6157 71.1988 53.8017 71.2394 58.9227C71.2799 64.0436 66.9375 68.299 61.5549 68.3417C56.1723 68.3843 51.763 64.1982 51.7224 59.0773Z" fill="#0C1E33" stroke="#0C1E33" stroke-width="0.821944"/>
</svg>
