<svg width="20" height="19" viewBox="0 0 20 19" fill="none" xmlns="http://www.w3.org/2000/svg">
<path d="M9.99989 0C4.48584 0 0 4.24983 0 9.47348C0 14.6974 4.48584 18.9472 9.99989 18.9472C15.5139 18.9472 20 14.6974 20 9.47348C20 4.24983 15.5137 0 9.99989 0ZM9.99989 17.5775C5.2832 17.5775 1.44556 13.942 1.44556 9.47348C1.44556 5.00496 5.28296 1.36966 9.99989 1.36966C14.7168 1.36966 18.5542 5.00496 18.5542 9.47348C18.5542 13.942 14.7168 17.5775 9.99989 17.5775Z" fill="black"/>
<path d="M12.8934 10.3455C12.8896 10.3455 12.8862 10.3455 12.8823 10.3455L10.7228 10.3761V5.02207C10.7228 4.64382 10.3992 4.33724 9.99989 4.33724C9.60061 4.33724 9.27699 4.64382 9.27699 5.02207V11.0714C9.27699 11.0728 9.27747 11.0741 9.27747 11.0755C9.27747 11.0778 9.27699 11.0798 9.27699 11.0817C9.27747 11.1095 9.28301 11.1358 9.28687 11.1625C9.28928 11.1791 9.28952 11.1963 9.29289 11.2127C9.2994 11.2422 9.31024 11.2695 9.3206 11.2972C9.3259 11.3116 9.32928 11.3266 9.33554 11.3403C9.34807 11.3684 9.36494 11.394 9.38109 11.4202C9.38856 11.4319 9.3941 11.4446 9.40205 11.4561C9.42036 11.4814 9.44229 11.504 9.46398 11.527C9.47314 11.5366 9.48061 11.5476 9.49024 11.5569C9.51362 11.5789 9.53988 11.5974 9.56615 11.6163C9.57675 11.6238 9.58615 11.633 9.59699 11.64C9.62543 11.6583 9.65651 11.6727 9.6876 11.6868C9.69844 11.6916 9.70808 11.6985 9.71916 11.7028C9.75531 11.7172 9.79386 11.7272 9.8329 11.7361C9.84013 11.7377 9.84688 11.7409 9.85435 11.7423C9.90109 11.7512 9.94953 11.7562 9.99917 11.7562C10.0028 11.7562 10.0066 11.7562 10.0103 11.7562L12.9038 11.7151C13.3028 11.7094 13.6216 11.3981 13.6158 11.02C13.6103 10.6454 13.2876 10.3455 12.8934 10.3455Z" fill="black"/>
</svg>
