<svg width="17" height="15" viewBox="0 0 17 15" fill="none" xmlns="http://www.w3.org/2000/svg">
<path d="M16.829 1.82503V11.8249C16.829 12.6407 16.1646 13.3892 15.3488 13.4901L15.0881 13.5237C13.7088 13.7088 11.766 14.2807 10.2017 14.9367C9.65501 15.1637 9.04947 14.7516 9.04947 14.1545V2.4558C9.04947 2.14462 9.22608 1.85867 9.50362 1.70729C11.0427 0.87467 13.3724 0.134565 14.9535 0H15.0039C16.0132 0 16.829 0.815798 16.829 1.82503Z" fill="#0C1E33"/>
<path d="M7.33377 1.70729C5.79469 0.87467 3.46504 0.134565 1.8839 0H1.82503C0.815798 0 0 0.815798 0 1.82503V11.8249C0 12.6407 0.664413 13.3892 1.48021 13.4901L1.74093 13.5237C3.12022 13.7088 5.06299 14.2807 6.62731 14.9367C7.17398 15.1637 7.77952 14.7516 7.77952 14.1545V2.4558C7.77952 2.13621 7.61131 1.85867 7.33377 1.70729ZM2.5315 4.2556H4.42381C4.76863 4.2556 5.05458 4.54155 5.05458 4.88638C5.05458 5.23961 4.76863 5.51715 4.42381 5.51715H2.5315C2.18667 5.51715 1.90072 5.23961 1.90072 4.88638C1.90072 4.54155 2.18667 4.2556 2.5315 4.2556ZM5.05458 8.04023H2.5315C2.18667 8.04023 1.90072 7.76269 1.90072 7.40946C1.90072 7.06464 2.18667 6.77869 2.5315 6.77869H5.05458C5.3994 6.77869 5.68535 7.06464 5.68535 7.40946C5.68535 7.76269 5.3994 8.04023 5.05458 8.04023Z" fill="#0C1E33"/>
</svg>
