<svg width="10" height="10" viewBox="0 0 10 10" fill="none" xmlns="http://www.w3.org/2000/svg">
<path d="M4.53369 2.05155L4.53369 2.05156C4.7017 2.22536 4.70276 2.49938 4.53295 2.66919C4.44561 2.75653 4.33443 2.7975 4.22375 2.7975C4.11307 2.7975 4.00189 2.75653 3.91456 2.66919L2.80125 1.55588V9.50001C2.80125 9.73953 2.60326 9.93751 2.36375 9.93751C2.12423 9.93751 1.92624 9.73953 1.92624 9.50001V1.55088L0.807936 2.66919C0.638528 2.8386 0.358954 2.8386 0.189546 2.66919C0.0201379 2.49978 0.0201379 2.22021 0.189546 2.0508L0.189605 2.05074L2.05455 0.190796L2.05461 0.190737L2.09874 0.23499C2.16875 0.16499 2.26375 0.12499 2.36375 0.12499C2.40875 0.12499 2.44875 0.13499 2.48875 0.14999L4.53369 2.05155ZM4.53369 2.05155L4.53295 2.0508L2.67794 0.195796C2.63686 0.154717 2.58469 0.120054 2.52696 0.0969602L2.51578 0.09249H2.51341L4.53369 2.05155Z" fill="#495D72" stroke="#495D72" stroke-width="0.115915"/>
<path d="M9.18955 7.33081L8.07124 8.44912V0.499991C8.07124 0.260473 7.87326 0.06249 7.63374 0.06249C7.39422 0.06249 7.19624 0.260473 7.19624 0.499991V8.44412L6.08293 7.33081C5.91352 7.16141 5.63395 7.16141 5.46454 7.33081C5.29513 7.50022 5.29513 7.77979 5.46454 7.9492L7.31954 9.80421C7.36062 9.84529 7.41279 9.87995 7.47053 9.90304L7.4817 9.90751H7.48407L7.48679 9.90853C7.53231 9.92561 7.58479 9.93751 7.63874 9.93751C7.7555 9.93751 7.86634 9.8908 7.94793 9.80921L9.80794 7.9492L9.80794 7.94921L9.80868 7.94845C9.97669 7.77464 9.97775 7.50063 9.80794 7.33081C9.63853 7.16141 9.35896 7.16141 9.18955 7.33081Z" fill="#495D72" stroke="#495D72" stroke-width="0.115915"/>
</svg>
