<svg width="17" height="16" viewBox="0 0 17 16" fill="none" xmlns="http://www.w3.org/2000/svg">
<path d="M9.00315 14.6988C9.2345 14.7526 9.25569 15.0556 9.03036 15.1307L7.69989 15.5686C4.35687 16.6465 2.59695 15.7454 1.51068 12.4024L0.432834 9.07626C-0.645014 5.73325 0.247579 3.9649 3.59059 2.88705L4.03183 2.74093C4.37107 2.62858 4.70122 2.96883 4.60489 3.31296C4.55714 3.48354 4.51121 3.66156 4.46634 3.84701L3.64112 7.37528C2.71484 11.3414 4.07057 13.5308 8.03672 14.4739L9.00315 14.6988Z" fill="#0C1E33"/>
<path d="M12.786 0.596642L11.3797 0.268235C8.56721 -0.396999 6.89149 0.150346 5.90627 2.18815C5.65365 2.70181 5.45156 3.32495 5.28314 4.0407L4.45792 7.56897C3.63269 11.0888 4.71896 12.8235 8.23038 13.6571L9.64506 13.994C10.1335 14.1118 10.5882 14.1876 11.0092 14.2213C13.6365 14.4739 15.0343 13.2445 15.7416 10.2046L16.5669 6.6848C17.3921 3.16495 16.3142 1.42187 12.786 0.596642ZM11.2029 9.11838C11.1271 9.40468 10.8745 9.58994 10.5882 9.58994C10.5377 9.58994 10.4871 9.58152 10.4282 9.5731L7.97776 8.94996C7.64094 8.86576 7.43884 8.52051 7.52305 8.18368C7.60725 7.84685 7.9525 7.64476 8.28933 7.72897L10.7397 8.3521C11.085 8.4363 11.2871 8.78155 11.2029 9.11838ZM13.6701 6.27219C13.5944 6.55849 13.3417 6.74375 13.0554 6.74375C13.0049 6.74375 12.9544 6.73532 12.8954 6.7269L8.81141 5.69116C8.47458 5.60695 8.27249 5.2617 8.35669 4.92488C8.4409 4.58805 8.78615 4.38595 9.12298 4.47016L13.207 5.5059C13.5523 5.58169 13.7544 5.92694 13.6701 6.27219Z" fill="#0C1E33"/>
</svg>
