<svg width="4" height="18" viewBox="0 0 4 18" fill="none" xmlns="http://www.w3.org/2000/svg">
<path d="M2 17.589C1.12697 17.589 0.410972 16.873 0.410972 16C0.410972 15.127 1.12697 14.411 2 14.411C2.87303 14.411 3.58903 15.127 3.58903 16C3.58903 16.873 2.87303 17.589 2 17.589Z" fill="#0C1E33" stroke="#0C1E33" stroke-width="0.821944"/>
<path d="M2 3.58903C1.12697 3.58903 0.410972 2.87303 0.410972 2C0.410972 1.12698 1.12697 0.410974 2 0.410974C2.87303 0.410974 3.58903 1.12697 3.58903 2C3.58903 2.87303 2.87303 3.58903 2 3.58903Z" fill="#0C1E33" stroke="#0C1E33" stroke-width="0.821944"/>
<path d="M2 10.589C1.12697 10.589 0.410972 9.87303 0.410972 9C0.410972 8.12697 1.12697 7.41097 2 7.41097C2.87303 7.41097 3.58903 8.12697 3.58903 9C3.58903 9.87303 2.87303 10.589 2 10.589Z" fill="#0C1E33" stroke="#0C1E33" stroke-width="0.821944"/>
</svg>
